<svg xmlns="http://www.w3.org/2000/svg" width="512" height="512"
     viewBox="105 107.5 300 300" preserveAspectRatio="xMidYMid meet">
  <rect x="105" y="107.5" width="300" height="300" fill="#FDF0E3"/>

  <!-- Escalier -->
  <path fill="#8D4A2C" d="
    M306 156
    H373
    Q376 156 376 159
    V171
    L160 358
    H143
    Q140 358 140 355
    V339
    L140 318
    H136
    V300
    Q136 297 139 297
    H201
    V272
    H188
    V253
    Q188 250 191 250
    H256
    V225
    H243
    V205
    Q243 202 246 202
    H316
    V179
    H303
    V176
    V159
    Q303 156 306 156
    Z"/>

  <!-- Jeux décalés vers la droite -->
  <rect x="182" y="340" width="22" height="18" rx="2" fill="#30644A"/>
  <rect x="208" y="319" width="25" height="39" rx="2" fill="#E9A64F"/>
  <rect x="238" y="300" width="25" height="58" rx="2" fill="#B64A37"/>
  <rect x="268" y="274" width="31" height="84" rx="2" fill="#427A90"/>

  <rect x="303" y="258" width="61" height="28" rx="2" fill="#E9A64F"/>
  <rect x="303" y="289" width="68" height="31" rx="2" fill="#B64A37"/>
  <rect x="303" y="324" width="73" height="34" rx="2" fill="#30644A"/>

  <!-- Petite boîte supplémentaire -->
  <rect x="323" y="242" width="41" height="13" rx="2" fill="#427A90"/>

</svg>
